{
  "format": {
    "bit_rate": "1346453",
    "duration": "89.600000",
    "filename": "/workspaces/typed-ffmpeg/src/ffmpeg/tests/test_probe/test_data/3c289a15d14d8b6775ec0a2cd233da70b963de5a.mp4",
    "format_long_name": "QuickTime / MOV",
    "format_name": "mov,mp4,m4a,3gp,3g2,mj2",
    "nb_programs": 0,
    "nb_streams": 3,
    "probe_score": 100,
    "size": "15080282",
    "start_time": "0.000000",
    "tags": {
      "compatible_brands": "isomiso2avc1mp41",
      "encoder": "Lavf59.27.100",
      "major_brand": "isom",
      "minor_version": "512"
    }
  },
  "streams": [
    {
      "avg_frame_rate": "30/1",
      "bit_rate": "1208285",
      "bits_per_raw_sample": "8",
      "chroma_location": "left",
      "closed_captions": 0,
      "codec_long_name": "H.264 / AVC / MPEG-4 AVC / MPEG-4 part 10",
      "codec_name": "h264",
      "codec_tag": "0x31637661",
      "codec_tag_string": "avc1",
      "codec_type": "video",
      "coded_height": 1080,
      "coded_width": 1920,
      "color_primaries": "bt709",
      "color_range": "tv",
      "color_space": "bt709",
      "color_transfer": "bt709",
      "display_aspect_ratio": "16:9",
      "disposition": {
        "attached_pic": 0,
        "captions": 0,
        "clean_effects": 0,
        "comment": 0,
        "default": 1,
        "dependent": 0,
        "descriptions": 0,
        "dub": 0,
        "forced": 0,
        "hearing_impaired": 0,
        "karaoke": 0,
        "lyrics": 0,
        "metadata": 0,
        "original": 0,
        "still_image": 0,
        "timed_thumbnails": 0,
        "visual_impaired": 0
      },
      "duration": "89.600000",
      "duration_ts": 1376256,
      "extradata_size": 35,
      "field_order": "progressive",
      "film_grain": 0,
      "has_b_frames": 0,
      "height": 1080,
      "id": "0x1",
      "index": 0,
      "is_avc": "true",
      "level": 40,
      "nal_length_size": "4",
      "nb_frames": "2688",
      "pix_fmt": "yuv420p",
      "profile": "High",
      "r_frame_rate": "30/1",
      "refs": 1,
      "sample_aspect_ratio": "1:1",
      "start_pts": 0,
      "start_time": "0.000000",
      "tags": {
        "encoder": "Lavc59.37.100 h264_videotoolbox",
        "handler_name": "Apple Video Media Handler",
        "language": "eng",
        "timecode": "00:00:00:00",
        "vendor_id": "[0][0][0][0]"
      },
      "time_base": "1/15360",
      "width": 1920
    },
    {
      "avg_frame_rate": "0/0",
      "bit_rate": "130986",
      "bits_per_sample": 0,
      "channel_layout": "stereo",
      "channels": 2,
      "codec_long_name": "AAC (Advanced Audio Coding)",
      "codec_name": "aac",
      "codec_tag": "0x6134706d",
      "codec_tag_string": "mp4a",
      "codec_type": "audio",
      "disposition": {
        "attached_pic": 0,
        "captions": 0,
        "clean_effects": 0,
        "comment": 0,
        "default": 1,
        "dependent": 0,
        "descriptions": 0,
        "dub": 0,
        "forced": 0,
        "hearing_impaired": 0,
        "karaoke": 0,
        "lyrics": 0,
        "metadata": 0,
        "original": 0,
        "still_image": 0,
        "timed_thumbnails": 0,
        "visual_impaired": 0
      },
      "duration": "89.600000",
      "duration_ts": 4300800,
      "extradata_size": 5,
      "id": "0x2",
      "index": 1,
      "initial_padding": 0,
      "nb_frames": "4201",
      "profile": "LC",
      "r_frame_rate": "0/0",
      "sample_fmt": "fltp",
      "sample_rate": "48000",
      "start_pts": 0,
      "start_time": "0.000000",
      "tags": {
        "handler_name": "Apple Sound Media Handler",
        "language": "eng",
        "vendor_id": "[0][0][0][0]"
      },
      "time_base": "1/48000"
    },
    {
      "avg_frame_rate": "15360/512",
      "codec_tag": "0x64636d74",
      "codec_tag_string": "tmcd",
      "codec_type": "data",
      "disposition": {
        "attached_pic": 0,
        "captions": 0,
        "clean_effects": 0,
        "comment": 0,
        "default": 0,
        "dependent": 0,
        "descriptions": 0,
        "dub": 0,
        "forced": 0,
        "hearing_impaired": 0,
        "karaoke": 0,
        "lyrics": 0,
        "metadata": 0,
        "original": 0,
        "still_image": 0,
        "timed_thumbnails": 0,
        "visual_impaired": 0
      },
      "duration": "89.600000",
      "duration_ts": 1376256,
      "extradata_size": 20,
      "id": "0x3",
      "index": 2,
      "nb_frames": "1",
      "r_frame_rate": "0/0",
      "start_pts": 0,
      "start_time": "0.000000",
      "tags": {
        "handler_name": "Apple Video Media Handler",
        "language": "eng",
        "timecode": "00:00:00:00"
      },
      "time_base": "1/15360"
    }
  ]
}
